# xmcd CD database file
#
# Track frame offsets:
#	182
#	13757
#	29537
#	44550
#	55507
#	68287
#	85092
#	98350
#	108125
#	121077
#	137045
#	149977
#
# Disc length: 2203 seconds
#
# Revision: 0
# Processed by: cddbd v1.5.1PL2 Copyright (c) Steve Scherf et al.
# Submitted via: CDex 1.51
#
DISCID=9708990c
DTITLE=Various Artist - Today's Country Classics [CD2]
DYEAR=1994
DGENRE=Country
TTITLE0=High Ridin' Heroes
TTITLE1=Picture Me
TTITLE2=Don't Give Candy To A Stranger
TTITLE3=Dance With The One That Brought You
TTITLE4=Time Passes By
TTITLE5=Baby, I'm The One
TTITLE6=Caddillac Style
TTITLE7=Country Boy's Dream
TTITLE8=Dumas Walker
TTITLE9=Should Have Been A Cowboy
TTITLE10=Concrete Cowboy
TTITLE11=Achy Breaky Heart
EXTD=YEAR: 1994
EXTT0=
EXTT1=
EXTT2=
EXTT3=
EXTT4=
EXTT5=
EXTT6=
EXTT7=
EXTT8=
EXTT9=
EXTT10=
EXTT11=
PLAYORDER=
